<svg width="754" height="115" viewBox="0 0 754 115" fill="none" xmlns="http://www.w3.org/2000/svg">
<path d="M244.539 99.0078C247.955 99.0078 251.095 98.3466 253.96 97.0241C256.936 95.7016 259.47 93.9383 261.564 91.7341C263.768 89.5299 265.476 86.94 266.688 83.9644C267.9 80.8786 268.506 77.6274 268.506 74.211C268.506 70.7945 267.9 67.5985 266.688 64.6228C265.476 61.537 263.768 58.892 261.564 56.6878C259.47 54.4837 256.936 52.7203 253.96 51.3978C251.095 50.0753 247.955 49.4141 244.539 49.4141C241.123 49.4141 237.927 50.0753 234.952 51.3978C232.086 52.7203 229.552 54.4837 227.348 56.6878C225.254 58.892 223.601 61.537 222.389 64.6228C221.177 67.5985 220.571 70.7945 220.571 74.211C220.571 77.6274 221.177 80.8786 222.389 83.9644C223.601 86.94 225.254 89.5299 227.348 91.7341C229.552 93.9383 232.086 95.7016 234.952 97.0241C237.927 98.3466 241.123 99.0078 244.539 99.0078ZM244.539 113.059C239.139 113.059 234.07 112.068 229.332 110.084C224.703 107.99 220.626 105.18 217.1 101.653C213.574 98.1262 210.764 94.0485 208.67 89.4197C206.686 84.6808 205.695 79.6112 205.695 74.211C205.695 68.8108 206.686 63.7963 208.67 59.1675C210.764 54.4286 213.574 50.2958 217.1 46.7691C220.626 43.2424 224.703 40.4872 229.332 38.5035C234.07 36.4095 239.139 35.3625 244.539 35.3625C249.938 35.3625 254.952 36.4095 259.58 38.5035C264.319 40.4872 268.451 43.2424 271.977 46.7691C275.504 50.2958 278.259 54.4286 280.242 59.1675C282.336 63.7963 283.383 68.8108 283.383 74.211C283.383 79.6112 282.336 84.6808 280.242 89.4197C278.259 94.0485 275.504 98.1262 271.977 101.653C268.451 105.18 264.319 107.99 259.58 110.084C254.952 112.068 249.938 113.059 244.539 113.059Z" fill="white"/>
<path d="M350.294 96.6935C351.286 97.6853 351.727 98.7874 351.617 99.9997C351.506 101.212 351.011 102.369 350.129 103.471C348.256 105.675 345.336 107.825 341.368 109.918C337.512 112.012 333.049 113.059 327.98 113.059C323.131 113.059 318.833 112.288 315.087 110.745C311.45 109.092 308.365 106.943 305.83 104.298C303.296 101.543 301.367 98.3466 300.045 94.7097C298.833 91.0728 298.227 87.2707 298.227 83.3032V65.1188C298.227 61.1513 298.888 57.3491 300.21 53.7122C301.643 50.0753 303.626 46.9344 306.161 44.2894C308.806 41.5342 311.946 39.3851 315.583 37.8422C319.219 36.1891 323.351 35.3625 327.98 35.3625C332.498 35.3625 336.52 36.1891 340.046 37.8422C343.572 39.3851 346.493 41.3138 348.807 43.6282C349.798 44.62 350.294 45.7772 350.294 47.0997C350.294 48.4222 349.798 49.5794 348.807 50.5713L345.666 53.7122C343.572 55.8062 341.313 55.7511 338.889 53.5469C337.677 52.4448 336.079 51.5081 334.096 50.7366C332.222 49.8549 330.184 49.4141 327.98 49.4141C322.69 49.4141 318.889 51.0121 316.574 54.2082C314.26 57.294 313.103 60.9309 313.103 65.1188V83.3032C313.103 85.3971 313.324 87.436 313.764 89.4197C314.315 91.2933 315.142 92.9464 316.244 94.3791C317.456 95.8118 318.999 96.969 320.872 97.8507C322.745 98.6221 325.115 99.0078 327.98 99.0078C330.845 99.0078 333.324 98.4017 335.418 97.1894C337.512 95.9771 339.165 94.8199 340.377 93.7178C342.911 91.6239 345.225 91.6239 347.319 93.7178L350.294 96.6935Z" fill="white"/>
<path d="M395.819 111.406C387.554 111.406 381.438 109.147 377.471 104.628C373.614 100.11 371.686 93.8281 371.686 85.7828V52.7203C371.686 51.6183 371.135 51.0672 370.033 51.0672H365.074C363.531 51.0672 362.319 50.6264 361.437 49.7447C360.556 48.8631 360.115 47.6508 360.115 46.1078V41.975C360.115 40.4321 360.556 39.2198 361.437 38.3382C362.319 37.4565 363.531 37.0157 365.074 37.0157H370.033C371.135 37.0157 371.686 36.4646 371.686 35.3625V23.7907C371.686 22.2477 372.126 21.0354 373.008 20.1538C373.89 19.2721 375.102 18.8313 376.644 18.8313H381.603C383.146 18.8313 384.358 19.2721 385.24 20.1538C386.121 21.0354 386.562 22.2477 386.562 23.7907V35.3625C386.562 36.4646 387.113 37.0157 388.215 37.0157H400.612C402.155 37.0157 403.367 37.4565 404.249 38.3382C405.13 39.2198 405.571 40.4321 405.571 41.975V46.1078C405.571 47.6508 405.13 48.8631 404.249 49.7447C403.367 50.6264 402.155 51.0672 400.612 51.0672H388.215C387.113 51.0672 386.562 51.6183 386.562 52.7203V84.9563C386.562 88.8136 387.278 91.8443 388.711 94.0485C390.254 96.2526 393.119 97.3547 397.306 97.3547H400.612C402.155 97.3547 403.367 97.7956 404.249 98.6772C405.13 99.5589 405.571 100.771 405.571 102.314V106.447C405.571 107.99 405.13 109.202 404.249 110.084C403.367 110.965 402.155 111.406 400.612 111.406H395.819Z" fill="white"/>
<path d="M455.998 99.0078C459.414 99.0078 462.555 98.3466 465.42 97.0241C468.395 95.7016 470.93 93.9383 473.024 91.7341C475.228 89.5299 476.936 86.94 478.148 83.9644C479.36 80.8786 479.966 77.6274 479.966 74.211C479.966 70.7945 479.36 67.5985 478.148 64.6228C476.936 61.537 475.228 58.892 473.024 56.6878C470.93 54.4837 468.395 52.7203 465.42 51.3978C462.555 50.0753 459.414 49.4141 455.998 49.4141C452.582 49.4141 449.387 50.0753 446.411 51.3978C443.546 52.7203 441.012 54.4837 438.808 56.6878C436.714 58.892 435.061 61.537 433.849 64.6228C432.637 67.5985 432.031 70.7945 432.031 74.211C432.031 77.6274 432.637 80.8786 433.849 83.9644C435.061 86.94 436.714 89.5299 438.808 91.7341C441.012 93.9383 443.546 95.7016 446.411 97.0241C449.387 98.3466 452.582 99.0078 455.998 99.0078ZM455.998 113.059C450.599 113.059 445.53 112.068 440.791 110.084C436.163 107.99 432.086 105.18 428.56 101.653C425.033 98.1262 422.223 94.0485 420.13 89.4197C418.146 84.6808 417.154 79.6112 417.154 74.211C417.154 68.8108 418.146 63.7963 420.13 59.1675C422.223 54.4286 425.033 50.2958 428.56 46.7691C432.086 43.2424 436.163 40.4872 440.791 38.5035C445.53 36.4095 450.599 35.3625 455.998 35.3625C461.398 35.3625 466.412 36.4095 471.04 38.5035C475.779 40.4872 479.911 43.2424 483.437 46.7691C486.963 50.2958 489.718 54.4286 491.702 59.1675C493.796 63.7963 494.842 68.8108 494.842 74.211C494.842 79.6112 493.796 84.6808 491.702 89.4197C489.718 94.0485 486.963 98.1262 483.437 101.653C479.911 105.18 475.779 107.99 471.04 110.084C466.412 112.068 461.398 113.059 455.998 113.059Z" fill="white"/>
<path d="M562.581 111.406C561.038 111.406 559.826 110.965 558.944 110.084C558.063 109.202 557.622 107.99 557.622 106.447V65.1188C557.622 60.9309 556.299 57.294 553.655 54.2082C551.12 51.0121 547.208 49.4141 541.919 49.4141C536.629 49.4141 532.662 51.0121 530.018 54.2082C527.483 57.294 526.216 60.9309 526.216 65.1188V106.447C526.216 107.99 525.775 109.202 524.894 110.084C524.012 110.965 522.8 111.406 521.257 111.406H516.298C514.756 111.406 513.543 110.965 512.662 110.084C511.78 109.202 511.339 107.99 511.339 106.447V65.1188C511.339 61.1513 512.056 57.3491 513.488 53.7122C515.031 50.0753 517.125 46.9344 519.77 44.2894C522.414 41.5342 525.61 39.3851 529.357 37.8422C533.103 36.1891 537.291 35.3625 541.919 35.3625C546.547 35.3625 550.734 36.1891 554.481 37.8422C558.228 39.3851 561.423 41.5342 564.068 44.2894C566.713 46.9344 568.752 50.0753 570.184 53.7122C571.727 57.3491 572.498 61.1513 572.498 65.1188V106.447C572.498 107.99 572.057 109.202 571.176 110.084C570.294 110.965 569.082 111.406 567.539 111.406H562.581Z" fill="white"/>
<path d="M598.984 25.4438C597.441 25.4438 596.229 25.0029 595.347 24.1213C594.466 23.2396 594.025 22.0273 594.025 20.4844V12.2188C594.025 10.6759 594.466 9.46357 595.347 8.5819C596.229 7.70023 597.441 7.2594 598.984 7.2594H603.943C605.485 7.2594 606.698 7.70023 607.579 8.5819C608.461 9.46357 608.902 10.6759 608.902 12.2188V20.4844C608.902 22.0273 608.461 23.2396 607.579 24.1213C606.698 25.0029 605.485 25.4438 603.943 25.4438H598.984ZM598.984 111.406C597.441 111.406 596.229 110.965 595.347 110.084C594.466 109.202 594.025 107.99 594.025 106.447V41.975C594.025 40.4321 594.466 39.2198 595.347 38.3382C596.229 37.4565 597.441 37.0157 598.984 37.0157H603.943C605.485 37.0157 606.698 37.4565 607.579 38.3382C608.461 39.2198 608.902 40.4321 608.902 41.975V106.447C608.902 107.99 608.461 109.202 607.579 110.084C606.698 110.965 605.485 111.406 603.943 111.406H598.984Z" fill="white"/>
<path d="M675.923 41.975C675.923 40.4321 676.364 39.2198 677.245 38.3382C678.127 37.4565 679.339 37.0157 680.882 37.0157H685.841C687.383 37.0157 688.596 37.4565 689.477 38.3382C690.359 39.2198 690.799 40.4321 690.799 41.975V83.3032C690.799 87.2707 690.083 91.0728 688.651 94.7097C687.218 98.3466 685.179 101.543 682.535 104.298C680 106.943 676.86 109.092 673.113 110.745C669.477 112.288 665.344 113.059 660.716 113.059C656.088 113.059 651.9 112.288 648.154 110.745C644.517 109.092 641.377 106.943 638.732 104.298C636.087 101.543 634.049 98.3466 632.616 94.7097C631.184 91.0728 630.467 87.2707 630.467 83.3032V41.975C630.467 40.4321 630.908 39.2198 631.79 38.3382C632.671 37.4565 633.883 37.0157 635.426 37.0157H640.385C641.928 37.0157 643.14 37.4565 644.021 38.3382C644.903 39.2198 645.344 40.4321 645.344 41.975V83.3032C645.344 87.4911 646.556 91.183 648.98 94.3791C651.515 97.4649 655.427 99.0078 660.716 99.0078C666.005 99.0078 669.862 97.4649 672.287 94.3791C674.711 91.183 675.923 87.4911 675.923 83.3032V41.975Z" fill="white"/>
<path d="M711.354 94.875C713.227 92.6709 715.486 92.726 718.131 95.0403C719.343 96.0322 720.776 96.969 722.429 97.8507C724.192 98.6221 726.286 99.0078 728.71 99.0078C731.685 99.0078 734.165 98.3466 736.148 97.0241C738.132 95.7016 739.123 93.9383 739.123 91.7341C739.123 89.6401 738.242 87.8217 736.479 86.2788C734.826 84.7359 731.685 82.8072 727.057 80.4928C724.082 79.0601 721.437 77.5723 719.123 76.0294C716.809 74.4865 714.825 72.8334 713.172 71.07C711.629 69.1965 710.417 67.1576 709.536 64.9535C708.654 62.7493 708.213 60.1594 708.213 57.1838C708.213 54.2082 708.764 51.3978 709.866 48.7528C710.968 46.1078 712.511 43.7935 714.495 41.8097C716.588 39.826 719.068 38.2831 721.933 37.181C724.908 35.9687 728.214 35.3625 731.85 35.3625C736.258 35.3625 740.17 36.1891 743.586 37.8422C747.002 39.4953 749.482 41.1485 751.024 42.8016C751.906 43.9037 752.347 45.116 752.347 46.4385C752.457 47.6508 752.016 48.7528 751.024 49.7447L748.049 52.8857C747.057 53.8775 746.011 54.5388 744.909 54.8694C743.917 55.0898 742.87 54.649 741.768 53.5469C738.793 50.7917 735.487 49.4141 731.85 49.4141C728.655 49.4141 726.286 50.1304 724.743 51.5632C723.31 52.9959 722.594 54.8694 722.594 57.1838C722.594 59.3879 723.641 61.2615 725.735 62.8044C727.828 64.3473 730.473 65.8351 733.669 67.2678C736.754 68.5903 739.509 70.023 741.933 71.566C744.468 73.1089 746.617 74.8171 748.38 76.6907C750.143 78.454 751.52 80.4928 752.512 82.8072C753.504 85.0114 754 87.6013 754 90.5769C754 94.2138 753.284 97.4649 751.851 100.33C750.418 103.086 748.49 105.455 746.066 107.439C743.752 109.312 741.052 110.69 737.966 111.572C734.991 112.563 731.961 113.059 728.875 113.059C723.806 113.059 719.619 112.398 716.313 111.076C713.007 109.643 710.362 107.769 708.379 105.455C707.497 104.463 707.001 103.306 706.891 101.983C706.891 100.661 707.387 99.5038 708.379 98.5119L711.354 94.875Z" fill="white"/>
<mask id="mask0_3887_229" style="mask-type:luminance" maskUnits="userSpaceOnUse" x="0" y="0" width="187" height="115">
<path fill-rule="evenodd" clip-rule="evenodd" d="M93.4269 0H0V115H93.4269H186.854V0H93.4269V0Z" fill="white"/>
</mask>
<g mask="url(#mask0_3887_229)">
<path fill-rule="evenodd" clip-rule="evenodd" d="M24.6468 67.9904C26.7416 67.7037 28.3572 65.9188 28.3572 63.754C28.3572 61.3894 26.4319 59.4726 24.0572 59.4726C23.7436 59.4726 23.4388 59.508 23.144 59.5716C10.0232 61.8997 0 73.3797 0 87.0652C0 101.503 11.0521 113.425 25.1822 114.859C26.1113 114.953 27.048 115 28.0003 115H28.0477H146.912C147.006 115 147.109 115 147.203 114.992C169.095 114.843 186.854 97.0666 186.854 75.2297C186.854 55.6894 172.433 38.963 153.154 35.9454C153.115 35.9375 153.076 35.9296 153.036 35.9296C152.627 35.8671 152.218 35.82 151.808 35.7728C149.636 35.7101 147.723 37.2856 147.424 39.4725C147.133 41.6984 148.612 43.752 150.785 44.2066C152.596 44.4027 154.359 44.7788 156.044 45.3275C156.177 45.3588 156.311 45.4058 156.437 45.4529C167.127 49.0506 174.818 59.1224 174.818 70.9737C174.818 85.8504 162.703 97.9131 147.762 97.9131C147.597 97.9131 147.432 97.9131 147.266 97.9052C147.203 97.9131 147.148 97.9131 147.085 97.9131C146.408 97.9131 145.747 97.8659 145.101 97.7797C145.062 97.7797 145.031 97.7797 144.999 97.7721C137.592 96.7608 131.893 90.4354 131.893 82.7854C131.893 80.1755 132.451 77.6594 133.624 75.5196C137.332 68.3949 139.434 60.306 139.434 51.7312C139.434 49.6072 139.308 47.5221 139.056 45.4687C139.032 45.4687 139.009 45.4764 138.985 45.4922C139.001 45.3823 139.009 45.2727 139.017 45.1628V45.1472C138.655 42.3098 138.064 39.5431 137.254 36.8702C130.846 15.5428 110.985 0 87.4799 0C61.0383 0 39.2098 19.6736 35.943 45.1237C35.6675 47.287 35.526 49.4895 35.526 51.7312C35.526 54.6705 35.7701 57.5548 36.25 60.3608C37.1553 65.7456 39.1947 70.6965 41.3433 75.5196C42.1036 77.2262 43.0749 80.1755 43.0749 82.7854C43.0749 91.1409 36.2736 97.9131 27.8825 97.9131C19.491 97.9131 12.6895 91.1409 12.6895 82.7854C12.6895 75.4733 17.9008 69.3773 24.8271 67.9688" fill="white"/>
</g>
</svg>
